# xmcd
#
# Track frame offsets: 
#        150
#        10804
#        24379
#        39843
#        50549
#        63266
#        77178
#        90175
#        103186
#        114908
#        128083
#        141808
#        153471
#
# Disc length: 2188 seconds
#
# Revision: 0
# Processed by: cddbd v1.5.2PL0 Copyright (c) Steve Scherf et al.
# Submitted via: ExactAudioCopy v0.99pb4
#
DISCID=96088a0d
DTITLE=The Border Blasters - Blast From The Past
DYEAR=2007
DGENRE=Country
TTITLE0=Object Of My Affection
TTITLE1=Got To Be With You Tonight
TTITLE2=Sunset On The Rio Grande
TTITLE3=Accordion Shuffle
TTITLE4=Blackout Blues
TTITLE5=Rocky Road Blues
TTITLE6=Stonin Around
TTITLE7=Cold And Lonely
TTITLE8=Trouble In Mind
TTITLE9=Harder They Come
TTITLE10=Hill Country Feelin
TTITLE11=Treat Her Bad
TTITLE12=Wabash Blues
EXTD=
EXTT0=
EXTT1=
EXTT2=
EXTT3=
EXTT4=
EXTT5=
EXTT6=
EXTT7=
EXTT8=
EXTT9=
EXTT10=
EXTT11=
EXTT12=
PLAYORDER=
